HIERARCHY
ROOT Hips
{
	OFFSET 0.00000 0.00000 0.00000
	CHANNELS 6 Xposition Yposition Zposition Zrotation Yrotation Xrotation 
	JOINT LHipJoint
	{
		OFFSET 0 0 0
		CHANNELS 3 Zrotation Yrotation Xrotation
		JOINT LeftUpLeg
		{
			OFFSET 1.57338 -1.94743 0.52196
			CHANNELS 3 Zrotation Yrotation Xrotation
			JOINT LeftLeg
			{
				OFFSET 2.60333 -7.15259 0.00000
				CHANNELS 3 Zrotation Yrotation Xrotation
				JOINT LeftFoot
				{
					OFFSET 2.77855 -7.63400 0.00000
					CHANNELS 3 Zrotation Yrotation Xrotation
					JOINT LeftToeBase
					{
						OFFSET 0.19847 -0.54529 2.28466
						CHANNELS 3 Zrotation Yrotation Xrotation
						End Site
						{
							OFFSET 0.00000 -0.00000 1.17993
						}
					}
				}
			}
		}
	}
	JOINT RHipJoint
	{
		OFFSET 0 0 0
		CHANNELS 3 Zrotation Yrotation Xrotation
		JOINT RightUpLeg
		{
			OFFSET -1.61527 -1.94743 0.52196
			CHANNELS 3 Zrotation Yrotation Xrotation
			JOINT RightLeg
			{
				OFFSET -2.53829 -6.97390 0.00000
				CHANNELS 3 Zrotation Yrotation Xrotation
				JOINT RightFoot
				{
					OFFSET -2.80762 -7.71387 0.00000
					CHANNELS 3 Zrotation Yrotation Xrotation
					JOINT RightToeBase
					{
						OFFSET -0.30536 -0.83898 2.28801
						CHANNELS 3 Zrotation Yrotation Xrotation
						End Site
						{
							OFFSET -0.00000 -0.00000 1.21323
						}
					}
				}
			}
		}
	}
	JOINT LowerBack
	{
		OFFSET 0 0 0
		CHANNELS 3 Zrotation Yrotation Xrotation
		JOINT Spine
		{
			OFFSET -0.04381 1.99497 -0.19778
			CHANNELS 3 Zrotation Yrotation Xrotation
			JOINT Spine1
			{
				OFFSET -0.01959 2.01295 -0.04372
				CHANNELS 3 Zrotation Yrotation Xrotation
				JOINT Neck
				{
					OFFSET 0 0 0
					CHANNELS 3 Zrotation Yrotation Xrotation
					JOINT Neck1
					{
						OFFSET -0.05459 1.76913 0.09708
						CHANNELS 3 Zrotation Yrotation Xrotation
						JOINT Head
						{
							OFFSET 0.09461 1.77368 -0.11172
							CHANNELS 3 Zrotation Yrotation Xrotation
							End Site
							{
								OFFSET 0.03812 1.78157 -0.04834
							}
						}
					}
				}
				JOINT LeftShoulder
				{
					OFFSET 0 0 0
					CHANNELS 3 Zrotation Yrotation Xrotation
					JOINT LeftArm
					{
						OFFSET 3.50922 1.24034 -0.28866
						CHANNELS 3 Zrotation Yrotation Xrotation
						JOINT LeftForeArm
						{
							OFFSET 5.40188 -0.00000 0.00000
							CHANNELS 3 Zrotation Yrotation Xrotation
							JOINT LeftHand
							{
								OFFSET 3.68559 -0.00000 0.00000
								CHANNELS 3 Zrotation Yrotation Xrotation
								JOINT LeftFingerBase
								{
									OFFSET 0 0 0
									CHANNELS 3 Zrotation Yrotation Xrotation
									JOINT LeftHandIndex1
									{
										OFFSET 0.61753 -0.00000 0.00000
										CHANNELS 3 Zrotation Yrotation Xrotation
										End Site
										{
											OFFSET 0.49787 -0.00000 0.00000
										}
									}
								}
								JOINT LThumb
								{
									OFFSET 0 0 0
									CHANNELS 3 Zrotation Yrotation Xrotation
									End Site
									{
										OFFSET 0.50547 -0.00000 0.50547
									}
								}
							}
						}
					}
				}
				JOINT RightShoulder
				{
					OFFSET 0 0 0
					CHANNELS 3 Zrotation Yrotation Xrotation
					JOINT RightArm
					{
						OFFSET -2.95373 1.39649 -0.27346
						CHANNELS 3 Zrotation Yrotation Xrotation
						JOINT RightForeArm
						{
							OFFSET -6.10670 -0.00000 -0.00000
							CHANNELS 3 Zrotation Yrotation Xrotation
							JOINT RightHand
							{
								OFFSET -3.63052 -0.00000 0.00000
								CHANNELS 3 Zrotation Yrotation Xrotation
								JOINT RightFingerBase
								{
									OFFSET 0 0 0
									CHANNELS 3 Zrotation Yrotation Xrotation
									JOINT RightHandIndex1
									{
										OFFSET -0.58385 -0.00000 0.00000
										CHANNELS 3 Zrotation Yrotation Xrotation
										End Site
										{
											OFFSET -0.47071 -0.00000 0.00000
										}
									}
								}
								JOINT RThumb
								{
									OFFSET 0 0 0
									CHANNELS 3 Zrotation Yrotation Xrotation
									End Site
									{
										OFFSET -0.47790 -0.00000 0.47790
									}
								}
							}
						}
					}
				}
			}
		}
	}
}
MOTION
Frames: 15
Frame Time: .0083333
-0.1354 29.8517 -10.0549 -89.7483 267.3510 89.8347 0.0000 0.0000 0.0000 -23.5697 10.0858 -19.4266 3.2288 11.0566 32.4709 0.3271 14.1019 -23.3417 0.0164 -0.8259 -2.2699 0.0000 0.0000 0.0000 24.0605 11.2861 -2.4034 -1.9820 -8.8286 25.2605 -1.4256 -16.4873 -33.6480 -0.2876 -3.4491 9.5316 -0.8053 1.9295 7.2789 -1.2307 2.4335 0.8183 -1.0588 1.2013 -3.2126 10.1112 -8.1857 7.8272 -23.6540 -15.6700 -17.1036 -8.0538 -6.6385 -9.4776 0.0000 -0.0000 0.0000 -86.1574 -3.9403 -16.7171 6.6091 -11.2741 -0.6531 -0.0000 -0.0000 20.6735 29.6984 21.7997 11.9590 -7.1250 0.0000 -0.0000 0.9719 54.7007 0.2316 0.0000 -0.0000 0.0000 73.9173 -0.0767 29.9382 -21.4397 32.3380 -6.2835 0.0000 0.0000 21.7957 -21.4180 3.5628 -1.3964 7.1250 -0.0000 -0.0000 3.9467 -26.1503 1.8073
-0.1427 29.8438 -10.0636 -103.9920 267.5780 104.1540 0.0000 0.0000 0.0000 -23.4557 10.0787 -19.3199 3.1660 10.9591 32.1419 0.2155 14.9677 -23.3760 0.0991 -2.0298 -5.5881 0.0000 0.0000 0.0000 24.3966 10.9146 -2.6990 -2.0116 -8.8901 25.4522 -1.4406 -16.5917 -33.8317 -0.2821 -3.4163 9.4399 -0.4575 2.0136 7.1236 -1.3521 2.5717 0.8018 -1.3863 1.2658 -3.1204 10.9022 -8.2666 7.8672 -23.9627 -15.9145 -17.7272 -8.3107 -6.7551 -9.8530 0.0000 0.0000 0.0000 -85.8217 -3.8611 -16.6998 6.5689 -11.2076 -0.6452 -0.0000 -0.0000 20.4836 29.7072 21.3534 11.7363 -7.1250 0.0000 -0.0000 1.0768 54.2099 0.2438 0.0000 0.0000 0.0000 74.2936 0.1024 29.6742 -21.3231 32.2035 -6.2212 0.0000 0.0000 22.2586 -21.0500 4.0931 -1.5735 7.1250 -0.0000 -0.0000 4.2160 -25.5931 1.9862
-0.1444 29.8415 -10.0737 -116.6290 267.8700 117.0030 0.0000 0.0000 0.0000 -23.0861 10.0108 -19.3882 3.0994 10.8542 31.7898 0.2291 15.1273 -23.7022 0.0956 -1.9935 -5.4877 0.0000 0.0000 0.0000 24.8853 10.8081 -3.0453 -2.0278 -8.9237 25.5571 -1.4227 -16.7619 -33.8871 -0.2742 -3.3683 9.3058 0.0387 2.2271 6.9152 -1.4351 2.8956 0.7002 -1.7737 1.4219 -3.0739 11.8123 -9.4855 9.9705 -24.5650 -18.5585 -20.5077 -8.3265 -7.7493 -12.0874 -0.0000 0.0000 0.0000 -85.4697 -3.8452 -17.5536 6.5073 -11.1055 -0.6333 -0.0000 -0.0000 22.0193 28.6172 21.3293 11.2246 -7.1250 0.0000 -0.0000 -0.0791 53.9598 -0.0174 -0.0000 0.0000 0.0000 74.5848 0.1319 29.2240 -21.2752 32.1482 -6.1957 0.0000 0.0000 22.9774 -20.4946 5.0672 -1.8908 7.1250 -0.0000 -0.0000 4.6176 -24.5729 2.2863
-0.1509 29.8355 -10.0803 -125.3240 267.6010 125.7540 0.0000 0.0000 0.0000 -23.3389 10.0758 -19.2446 3.0160 10.7210 31.3445 0.0712 15.8535 -23.1824 0.2116 -2.9615 -8.1717 0.0000 0.0000 0.0000 24.8564 10.6841 -3.1300 -2.0341 -8.9367 25.5974 -1.4315 -16.9470 -34.1105 -0.2817 -3.4137 9.4328 -0.0613 2.3700 6.7916 -1.4822 3.0781 0.6327 -1.7793 1.5139 -3.0719 11.9928 -9.9134 10.9999 -24.5536 -19.6695 -22.1189 -8.1998 -8.1328 -13.2556 -0.0000 0.0000 0.0000 -85.4017 -3.6761 -18.3485 6.5199 -11.1264 -0.6357 -0.0000 -0.0000 23.2295 27.6594 21.8937 11.0581 -7.1250 0.0000 -0.0000 -1.2323 54.3803 -0.2841 -0.0000 0.0000 0.0000 74.5381 0.1089 29.2720 -21.3042 32.1817 -6.2111 0.0000 0.0000 23.2690 -20.1681 5.3642 -1.9666 7.1250 -0.0000 -0.0000 4.8567 -24.2693 2.4397
-0.1649 29.8290 -10.0819 -130.2500 266.9990 130.5510 0.0000 0.0000 0.0000 -23.8720 9.9354 -18.6917 2.9124 10.5519 30.7831 -0.0790 16.5740 -22.7413 0.3603 -3.8562 -10.6726 0.0000 0.0000 0.0000 24.5127 10.2594 -3.0649 -2.0408 -8.9505 25.6405 -1.4660 -16.9879 -34.3451 -0.2864 -3.4414 9.5103 -0.3934 2.4195 6.7362 -1.5719 3.1153 0.6607 -1.6860 1.5356 -3.0238 11.9197 -10.2071 11.8122 -24.2522 -20.4416 -23.4211 -7.9514 -8.3834 -14.1306 -0.0000 0.0000 0.0000 -85.4658 -3.4437 -18.0025 6.5624 -11.1968 -0.6440 -0.0000 -0.0000 22.1506 28.0874 21.8741 11.2453 -7.1250 0.0000 -0.0000 -0.7722 54.4467 -0.1792 -0.0000 0.0000 0.0000 74.4218 0.2208 29.7827 -21.3060 32.1838 -6.2121 0.0000 0.0000 23.0285 -20.0533 4.9670 -1.8102 7.1250 -0.0000 -0.0000 4.9490 -24.6944 2.4375
-0.1758 29.8230 -10.0837 -137.1430 266.5420 137.2710 0.0000 0.0000 0.0000 -24.0264 9.6193 -18.0505 2.8027 10.3685 30.1786 -0.1146 16.8810 -22.8408 0.3489 -3.7954 -10.5017 0.0000 0.0000 0.0000 24.4574 9.6746 -2.9296 -2.0174 -8.9023 25.4900 -1.4882 -16.9579 -34.4429 -0.2955 -3.4956 9.6618 -0.4267 2.4253 6.7452 -1.6296 3.1180 0.7240 -1.7255 1.5369 -2.9619 11.9663 -10.4316 12.3695 -23.9982 -21.0314 -24.4667 -7.7727 -8.5869 -14.8393 0.0000 -0.0000 0.0000 -85.4868 -3.2736 -18.3552 6.6023 -11.2629 -0.6517 -0.0000 -0.0000 22.3328 27.8485 21.6272 11.0189 -7.1250 0.0000 -0.0000 -0.9645 54.1290 -0.2164 0.0000 -0.0000 0.0000 74.3897 0.4950 30.3641 -21.2675 32.1393 -6.1916 0.0000 0.0000 22.6782 -20.4300 3.7891 -1.4101 7.1250 -0.0000 -0.0000 4.6906 -25.9334 2.1738
-0.1851 29.8199 -10.0909 -144.5690 266.2050 144.6140 0.0000 0.0000 0.0000 -23.9394 9.2167 -17.5414 2.7044 10.2005 29.6284 -0.2059 17.4110 -22.7343 0.2958 -3.4974 -9.6668 0.0000 0.0000 0.0000 24.6741 9.3171 -2.7457 -1.9715 -8.8065 25.1920 -1.4751 -17.1741 -34.5703 -0.3052 -3.5516 9.8184 -0.4451 2.4049 6.7694 -1.5223 3.0937 0.6859 -1.6050 1.5259 -3.0222 11.8218 -10.6650 13.3275 -23.5691 -21.7777 -25.9782 -7.4593 -8.8075 -15.8731 -0.0000 0.0000 0.0000 -85.6414 -2.9541 -19.0177 6.6631 -11.3635 -0.6637 -0.0000 -0.0000 23.1595 27.2311 21.5446 10.7016 -7.1250 0.0000 -0.0000 -1.5952 53.9151 -0.3497 -0.0000 0.0000 0.0000 74.2318 0.6257 30.8806 -21.2242 32.0892 -6.1686 0.0000 0.0000 22.3845 -21.0418 2.9809 -1.1461 7.1250 -0.0000 -0.0000 4.2454 -26.7810 1.8819
-0.1976 29.8535 -10.1005 -151.6490 265.8750 151.6980 0.0000 0.0000 0.0000 -23.0934 6.5883 -16.2766 2.6337 10.0770 29.2265 0.6700 14.7093 -26.8862 0.1449 2.4531 6.7595 0.0000 0.0000 0.0000 25.0021 9.1519 -2.4765 -1.9033 -8.6616 24.7425 -1.4947 -17.3919 -34.8833 -0.3366 -3.7283 10.3134 -0.4308 2.3798 6.7671 -1.3782 3.0679 0.6171 -1.4642 1.5142 -3.0998 11.5219 -10.8305 14.1792 -23.0185 -22.3454 -27.2925 -7.0842 -8.9537 -16.7291 0.0000 -0.0000 0.0000 -85.8313 -2.5177 -17.5985 6.7616 -11.5263 -0.6832 -0.0000 -0.0000 20.5503 28.3426 21.2022 11.0387 -7.1250 0.0000 -0.0000 -0.3404 53.7651 -0.0734 0.0000 -0.0000 0.0000 74.1243 0.8068 31.0170 -21.1570 32.0112 -6.1330 0.0000 0.0000 22.7393 -20.8875 2.9984 -1.1436 7.1250 -0.0000 -0.0000 4.3626 -26.7653 1.9358
-0.2077 29.8653 -10.1038 -157.6640 265.4300 157.7610 0.0000 0.0000 0.0000 -22.6776 4.9857 -15.5745 2.5835 9.9882 28.9386 1.0292 13.7703 -28.5762 0.5505 4.7530 13.2055 0.0000 0.0000 0.0000 25.2921 8.9742 -2.3025 -1.8395 -8.5235 24.3158 -1.4657 -17.7315 -35.0416 -0.3402 -3.7481 10.3691 -0.2943 2.3731 6.6755 -1.3190 3.0737 0.5970 -1.4761 1.5165 -3.0652 11.3613 -11.0308 14.7359 -22.4456 -22.8911 -28.4537 -6.7196 -9.1311 -17.4707 0.0000 -0.0000 0.0000 -85.8123 -2.3905 -18.2945 6.8280 -11.6357 -0.6965 -0.0000 -0.0000 21.8490 27.0118 21.9318 10.7804 -7.1250 0.0000 -0.0000 -1.9284 54.2898 -0.4404 0.0000 -0.0000 0.0000 74.1621 1.1087 30.7142 -21.1237 31.9725 -6.1153 0.0000 0.0000 23.9743 -19.6486 2.8943 -1.0328 7.1250 -0.0000 -0.0000 5.3112 -26.8980 2.3432
-0.2163 29.8647 -10.1046 -160.8950 264.8430 161.0190 0.0000 0.0000 0.0000 -22.6302 4.1058 -15.1987 2.5525 9.9327 28.7592 1.1628 13.4165 -29.1743 0.7661 5.5894 15.5976 0.0000 0.0000 0.0000 25.3789 8.6750 -2.1835 -1.7839 -8.4006 23.9375 -1.4165 -18.0742 -35.0956 -0.3318 -3.7022 10.2404 -0.2926 2.3679 6.6022 -1.3324 3.0677 0.5663 -1.4878 1.5138 -3.0553 11.4109 -11.1713 14.9667 -22.2583 -23.2777 -29.0968 -6.5836 -9.2745 -17.9537 0.0000 -0.0000 0.0000 -85.8295 -2.2227 -18.2797 6.8735 -11.7109 -0.7057 -0.0000 -0.0000 21.7392 27.0277 21.7802 10.7184 -7.1250 0.0000 -0.0000 -1.8711 54.1293 -0.4200 0.0000 -0.0000 0.0000 74.1839 1.2953 30.6998 -21.1409 31.9924 -6.1244 0.0000 0.0000 24.5486 -19.0157 2.7084 -0.9330 7.1250 -0.0000 -0.0000 5.8018 -27.1036 2.5334
-0.2240 29.8627 -10.1049 -163.0040 264.2150 163.1530 0.0000 0.0000 0.0000 -22.6536 3.4369 -14.9362 2.5347 9.9007 28.6558 1.3120 12.8861 -29.7107 1.0156 6.4115 17.9833 0.0000 0.0000 0.0000 25.3709 8.2263 -2.2988 -1.7704 -8.3704 23.8450 -1.3922 -18.2696 -35.1497 -0.3151 -3.6086 9.9780 -0.3415 2.3854 6.5502 -1.3895 3.0860 0.5120 -1.5201 1.5232 -3.0814 11.4037 -11.2758 15.4110 -22.0807 -23.6951 -29.9120 -6.4389 -9.4007 -18.6099 0.0000 -0.0000 0.0000 -85.7699 -2.0194 -18.1093 6.8805 -11.7224 -0.7072 -0.0000 -0.0000 21.6178 27.0809 21.6367 10.6766 -7.1250 0.0000 -0.0000 -1.7771 53.9846 -0.3926 0.0000 -0.0000 0.0000 74.2547 1.3442 30.9476 -21.1722 32.0288 -6.1410 0.0000 0.0000 24.1400 -18.6376 4.5884 -1.5455 7.1250 -0.0000 -0.0000 6.0186 -25.1366 2.9073
-0.2288 29.8630 -10.1096 -163.6960 263.8040 163.8480 0.0000 0.0000 0.0000 -22.6843 3.0165 -14.7726 2.5293 9.8910 28.6243 1.4600 12.2659 -30.1637 1.2772 7.1622 20.1967 0.0000 0.0000 0.0000 25.3462 8.0827 -2.3510 -1.7777 -8.3869 23.8955 -1.4332 -18.3121 -35.4161 -0.3333 -3.7102 10.2629 -0.5257 2.4612 6.5633 -1.4515 3.1701 0.4838 -1.4903 1.5665 -3.1225 11.4920 -11.6565 16.0741 -21.2227 -24.3171 -31.0810 -5.9249 -9.6365 -19.4394 0.0000 0.0000 0.0000 -85.7295 -1.8074 -17.6226 6.9182 -11.7846 -0.7148 -0.0000 -0.0000 20.6200 27.5189 21.3529 10.7412 -7.1250 0.0000 -0.0000 -1.2442 53.7645 -0.2681 0.0000 0.0000 0.0000 74.3974 1.4846 31.3439 -21.2178 32.0817 -6.1652 0.0000 0.0000 23.3461 -18.0713 7.9869 -2.5959 7.1250 -0.0000 -0.0000 6.3610 -21.6042 3.5938
-0.2302 29.8613 -10.1189 -163.8330 263.4960 163.9460 0.0000 0.0000 0.0000 -22.7009 2.9103 -14.7349 2.5359 9.9029 28.6628 1.6429 11.2582 -30.5473 1.6909 8.1901 23.2930 0.0000 0.0000 0.0000 25.3427 8.1738 -2.2789 -1.7852 -8.4036 23.9469 -1.4861 -18.3887 -35.7774 -0.3606 -3.8579 10.6773 -0.7661 2.5695 6.6744 -1.5103 3.2910 0.4636 -1.4342 1.6285 -3.2133 11.3818 -11.9108 16.6890 -20.3602 -24.7691 -32.1975 -5.4066 -9.7856 -20.1635 0.0000 0.0000 0.0000 -85.7073 -1.6730 -17.2533 6.9770 -11.8815 -0.7269 -0.0000 -0.0000 19.4743 27.8286 21.1416 10.7796 -7.1250 0.0000 -0.0000 -0.8675 53.5962 -0.1834 0.0000 0.0000 0.0000 74.5994 1.6512 31.6077 -21.2231 32.0879 -6.1680 0.0000 0.0000 22.8590 -18.1652 9.3550 -3.0530 7.1250 -0.0000 -0.0000 6.2821 -20.1720 3.7528
-0.2308 29.8582 -10.1288 -164.0450 263.1470 164.1000 0.0000 0.0000 0.0000 -22.7084 2.8280 -14.7490 2.5554 9.9379 28.7758 1.3619 12.0423 -29.3316 1.2980 7.2181 20.3632 0.0000 0.0000 0.0000 25.3597 8.2322 -2.1602 -1.7823 -8.3971 23.9269 -1.5070 -18.5627 -36.0556 -0.3855 -3.9871 11.0403 -1.0215 2.6463 6.8124 -1.5477 3.3683 0.4468 -1.3454 1.6692 -3.3192 11.2284 -12.0113 17.0851 -19.8646 -25.0173 -32.9170 -5.0966 -9.8489 -20.6351 0.0000 0.0000 0.0000 -85.6549 -1.6145 -16.8127 6.9929 -11.9075 -0.7302 -0.0000 -0.0000 18.2342 28.0338 21.3312 10.9619 -7.1250 0.0000 -0.0000 -0.6965 53.8440 -0.1514 0.0000 0.0000 0.0000 74.8036 1.8833 31.6934 -21.1769 32.0343 -6.1435 0.0000 0.0000 22.8205 -18.5268 9.2136 -3.0714 7.1250 -0.0000 -0.0000 6.0235 -20.2975 3.5795
-0.2412 29.8570 -10.1353 -165.8140 262.8590 165.7860 0.0000 0.0000 0.0000 -22.4897 2.6383 -14.6386 2.5751 9.9732 28.8899 1.0133 13.0099 -27.7499 0.7943 5.6889 15.8844 0.0000 0.0000 0.0000 25.5444 8.0111 -2.0869 -1.7765 -8.3842 23.8873 -1.5394 -18.5587 -36.2245 -0.4125 -4.1228 11.4223 -1.0219 2.7262 6.8265 -1.5504 3.4742 0.4578 -1.3585 1.7218 -3.3141 11.2362 -12.1196 17.7339 -19.2654 -25.2404 -33.6170 -4.7892 -9.9387 -21.6350 0.0000 0.0000 0.0000 -85.5968 -1.4033 -15.5291 7.0023 -11.9230 -0.7321 -0.0000 -0.0000 16.0416 28.7537 21.2301 11.2379 -7.1250 0.0000 -0.0000 0.0880 53.8787 0.0192 0.0000 0.0000 0.0000 74.9804 2.0816 31.7785 -21.1432 31.9951 -6.1256 0.0000 0.0000 22.8145 -18.9403 8.9176 -3.0450 7.1250 -0.0000 -0.0000 5.7272 -20.5823 3.3648
